<mxfile host="app.diagrams.net" modified="2024-07-11T06:23:27.637Z" agent="Mozilla/5.0 (Windows NT 10.0; Win64; x64) AppleWebKit/537.36 (KHTML, like Gecko) Chrome/126.0.0.0 Safari/537.36" etag="8ja8ElpZyHBC-kHI2Xg6" version="24.6.4" type="github">
  <diagram name="第 1 页" id="37P-U51EnbsV-kiMkQR-">
    <mxGraphModel dx="2261" dy="749" grid="1" gridSize="10" guides="1" tooltips="1" connect="1" arrows="1" fold="1" page="1" pageScale="1" pageWidth="827" pageHeight="1169" math="0" shadow="0">
      <root>
        <mxCell id="0" />
        <mxCell id="1" parent="0" />
        <mxCell id="3LVS5Vz8I80ukSkjfiv--3" value="" style="rounded=0;whiteSpace=wrap;html=1;dashed=1;dashPattern=8 8;" vertex="1" parent="1">
          <mxGeometry x="-195" y="120" width="320" height="140" as="geometry" />
        </mxCell>
        <mxCell id="3LVS5Vz8I80ukSkjfiv--1" value="文件B" style="rounded=1;whiteSpace=wrap;html=1;fillColor=#d5e8d4;gradientColor=#97d077;strokeColor=#82b366;" vertex="1" parent="1">
          <mxGeometry x="-178" y="165" width="90" height="50" as="geometry" />
        </mxCell>
        <mxCell id="3LVS5Vz8I80ukSkjfiv--8" value="" style="rounded=1;whiteSpace=wrap;html=1;fillColor=#fff2cc;strokeColor=#d6b656;" vertex="1" parent="1">
          <mxGeometry x="-62" y="135" width="170" height="100" as="geometry" />
        </mxCell>
        <mxCell id="3LVS5Vz8I80ukSkjfiv--9" value="文件A" style="rounded=1;whiteSpace=wrap;html=1;fillColor=#dae8fc;gradientColor=#7ea6e0;strokeColor=#6c8ebf;" vertex="1" parent="1">
          <mxGeometry x="-45" y="170" width="70" height="40" as="geometry" />
        </mxCell>
        <mxCell id="3LVS5Vz8I80ukSkjfiv--15" value="新增文件B&lt;br&gt;附件ID：111111" style="rounded=1;whiteSpace=wrap;html=1;" vertex="1" parent="1">
          <mxGeometry x="-95" y="320" width="120" height="60" as="geometry" />
        </mxCell>
        <mxCell id="3LVS5Vz8I80ukSkjfiv--16" value="初始&lt;br&gt;附件ID：111111" style="rounded=1;whiteSpace=wrap;html=1;" vertex="1" parent="1">
          <mxGeometry x="-380" y="320" width="120" height="60" as="geometry" />
        </mxCell>
        <mxCell id="3LVS5Vz8I80ukSkjfiv--17" value="" style="rounded=0;whiteSpace=wrap;html=1;dashed=1;dashPattern=8 8;" vertex="1" parent="1">
          <mxGeometry x="-413" y="445" width="190" height="140" as="geometry" />
        </mxCell>
        <mxCell id="3LVS5Vz8I80ukSkjfiv--19" value="" style="rounded=1;whiteSpace=wrap;html=1;fillColor=#fff2cc;strokeColor=#d6b656;" vertex="1" parent="1">
          <mxGeometry x="-383" y="460" width="130" height="100" as="geometry" />
        </mxCell>
        <mxCell id="3LVS5Vz8I80ukSkjfiv--20" value="文件A" style="rounded=1;whiteSpace=wrap;html=1;fillColor=#dae8fc;gradientColor=#7ea6e0;strokeColor=#6c8ebf;" vertex="1" parent="1">
          <mxGeometry x="-368" y="495" width="70" height="40" as="geometry" />
        </mxCell>
        <mxCell id="3LVS5Vz8I80ukSkjfiv--21" value="附件ID-111111" style="text;html=1;align=center;verticalAlign=middle;whiteSpace=wrap;rounded=0;" vertex="1" parent="1">
          <mxGeometry x="-383" y="460" width="93" height="30" as="geometry" />
        </mxCell>
        <mxCell id="3LVS5Vz8I80ukSkjfiv--23" value="" style="shape=flexArrow;endArrow=classic;html=1;rounded=0;exitX=1;exitY=0.5;exitDx=0;exitDy=0;" edge="1" parent="1" source="3LVS5Vz8I80ukSkjfiv--16" target="3LVS5Vz8I80ukSkjfiv--15">
          <mxGeometry width="50" height="50" relative="1" as="geometry">
            <mxPoint x="-250" y="360" as="sourcePoint" />
            <mxPoint x="-200" y="310" as="targetPoint" />
          </mxGeometry>
        </mxCell>
        <mxCell id="3LVS5Vz8I80ukSkjfiv--24" value="附件ID-111111" style="text;html=1;align=center;verticalAlign=middle;whiteSpace=wrap;rounded=0;" vertex="1" parent="1">
          <mxGeometry x="-62" y="135" width="93" height="30" as="geometry" />
        </mxCell>
        <mxCell id="3LVS5Vz8I80ukSkjfiv--25" value="保存成功后绑定文件&lt;div&gt;附件ID：111111&lt;/div&gt;" style="rounded=1;whiteSpace=wrap;html=1;" vertex="1" parent="1">
          <mxGeometry x="170" y="320" width="150" height="60" as="geometry" />
        </mxCell>
        <mxCell id="3LVS5Vz8I80ukSkjfiv--26" value="" style="shape=flexArrow;endArrow=classic;html=1;rounded=0;exitX=1;exitY=0.5;exitDx=0;exitDy=0;" edge="1" parent="1" target="3LVS5Vz8I80ukSkjfiv--25" source="3LVS5Vz8I80ukSkjfiv--15">
          <mxGeometry width="50" height="50" relative="1" as="geometry">
            <mxPoint x="110" y="350" as="sourcePoint" />
            <mxPoint x="170" y="310" as="targetPoint" />
          </mxGeometry>
        </mxCell>
        <mxCell id="3LVS5Vz8I80ukSkjfiv--27" value="" style="rounded=0;whiteSpace=wrap;html=1;dashed=1;dashPattern=8 8;" vertex="1" parent="1">
          <mxGeometry x="130" y="440" width="230" height="140" as="geometry" />
        </mxCell>
        <mxCell id="3LVS5Vz8I80ukSkjfiv--29" value="" style="rounded=1;whiteSpace=wrap;html=1;fillColor=#fff2cc;strokeColor=#d6b656;" vertex="1" parent="1">
          <mxGeometry x="160" y="455" width="170" height="100" as="geometry" />
        </mxCell>
        <mxCell id="3LVS5Vz8I80ukSkjfiv--30" value="文件A" style="rounded=1;whiteSpace=wrap;html=1;fillColor=#dae8fc;gradientColor=#7ea6e0;strokeColor=#6c8ebf;" vertex="1" parent="1">
          <mxGeometry x="175" y="490" width="70" height="40" as="geometry" />
        </mxCell>
        <mxCell id="3LVS5Vz8I80ukSkjfiv--31" value="附件ID-111111" style="text;html=1;align=center;verticalAlign=middle;whiteSpace=wrap;rounded=0;" vertex="1" parent="1">
          <mxGeometry x="157" y="455" width="93" height="30" as="geometry" />
        </mxCell>
        <mxCell id="3LVS5Vz8I80ukSkjfiv--32" value="文件B" style="rounded=1;whiteSpace=wrap;html=1;fillColor=#d5e8d4;gradientColor=#97d077;strokeColor=#82b366;" vertex="1" parent="1">
          <mxGeometry x="230" y="500" width="70" height="40" as="geometry" />
        </mxCell>
        <mxCell id="3LVS5Vz8I80ukSkjfiv--33" value="" style="endArrow=classic;html=1;rounded=0;" edge="1" parent="1" source="3LVS5Vz8I80ukSkjfiv--16" target="3LVS5Vz8I80ukSkjfiv--19">
          <mxGeometry width="50" height="50" relative="1" as="geometry">
            <mxPoint x="-170" y="470" as="sourcePoint" />
            <mxPoint x="-120" y="420" as="targetPoint" />
          </mxGeometry>
        </mxCell>
        <mxCell id="3LVS5Vz8I80ukSkjfiv--34" value="" style="endArrow=classic;html=1;rounded=0;" edge="1" parent="1" source="3LVS5Vz8I80ukSkjfiv--15" target="3LVS5Vz8I80ukSkjfiv--8">
          <mxGeometry width="50" height="50" relative="1" as="geometry">
            <mxPoint x="-100" y="530" as="sourcePoint" />
            <mxPoint x="-40" y="250" as="targetPoint" />
          </mxGeometry>
        </mxCell>
        <mxCell id="3LVS5Vz8I80ukSkjfiv--35" value="" style="endArrow=classic;html=1;rounded=0;" edge="1" parent="1" target="3LVS5Vz8I80ukSkjfiv--29">
          <mxGeometry width="50" height="50" relative="1" as="geometry">
            <mxPoint x="245" y="380" as="sourcePoint" />
            <mxPoint x="90" y="580" as="targetPoint" />
          </mxGeometry>
        </mxCell>
        <mxCell id="3LVS5Vz8I80ukSkjfiv--36" value="" style="rounded=0;whiteSpace=wrap;html=1;dashed=1;dashPattern=8 8;" vertex="1" parent="1">
          <mxGeometry x="-310" y="720" width="550" height="140" as="geometry" />
        </mxCell>
        <mxCell id="3LVS5Vz8I80ukSkjfiv--37" value="文件B" style="rounded=1;whiteSpace=wrap;html=1;fillColor=#d5e8d4;gradientColor=#97d077;strokeColor=#82b366;" vertex="1" parent="1">
          <mxGeometry x="-80" y="760" width="90" height="50" as="geometry" />
        </mxCell>
        <mxCell id="3LVS5Vz8I80ukSkjfiv--38" value="" style="rounded=1;whiteSpace=wrap;html=1;fillColor=#fff2cc;strokeColor=#d6b656;" vertex="1" parent="1">
          <mxGeometry x="-277" y="740" width="170" height="100" as="geometry" />
        </mxCell>
        <mxCell id="3LVS5Vz8I80ukSkjfiv--39" value="文件A" style="rounded=1;whiteSpace=wrap;html=1;fillColor=#dae8fc;gradientColor=#7ea6e0;strokeColor=#6c8ebf;" vertex="1" parent="1">
          <mxGeometry x="-262" y="775" width="70" height="40" as="geometry" />
        </mxCell>
        <mxCell id="3LVS5Vz8I80ukSkjfiv--40" value="新增文件B&lt;br&gt;触发附件变动&lt;br&gt;附件ID：222222" style="rounded=1;whiteSpace=wrap;html=1;" vertex="1" parent="1">
          <mxGeometry x="-95" y="920" width="120" height="60" as="geometry" />
        </mxCell>
        <mxCell id="3LVS5Vz8I80ukSkjfiv--41" value="初始&lt;br&gt;附件ID：111111" style="rounded=1;whiteSpace=wrap;html=1;" vertex="1" parent="1">
          <mxGeometry x="-380" y="920" width="120" height="60" as="geometry" />
        </mxCell>
        <mxCell id="3LVS5Vz8I80ukSkjfiv--42" value="" style="rounded=0;whiteSpace=wrap;html=1;dashed=1;dashPattern=8 8;" vertex="1" parent="1">
          <mxGeometry x="-413" y="1045" width="190" height="140" as="geometry" />
        </mxCell>
        <mxCell id="3LVS5Vz8I80ukSkjfiv--43" value="" style="rounded=1;whiteSpace=wrap;html=1;fillColor=#fff2cc;strokeColor=#d6b656;" vertex="1" parent="1">
          <mxGeometry x="-383" y="1060" width="130" height="100" as="geometry" />
        </mxCell>
        <mxCell id="3LVS5Vz8I80ukSkjfiv--44" value="文件A" style="rounded=1;whiteSpace=wrap;html=1;fillColor=#dae8fc;gradientColor=#7ea6e0;strokeColor=#6c8ebf;" vertex="1" parent="1">
          <mxGeometry x="-368" y="1095" width="70" height="40" as="geometry" />
        </mxCell>
        <mxCell id="3LVS5Vz8I80ukSkjfiv--45" value="附件ID-111111" style="text;html=1;align=center;verticalAlign=middle;whiteSpace=wrap;rounded=0;" vertex="1" parent="1">
          <mxGeometry x="-383" y="1060" width="93" height="30" as="geometry" />
        </mxCell>
        <mxCell id="3LVS5Vz8I80ukSkjfiv--46" value="" style="shape=flexArrow;endArrow=classic;html=1;rounded=0;exitX=1;exitY=0.5;exitDx=0;exitDy=0;" edge="1" parent="1" source="3LVS5Vz8I80ukSkjfiv--41" target="3LVS5Vz8I80ukSkjfiv--40">
          <mxGeometry width="50" height="50" relative="1" as="geometry">
            <mxPoint x="-250" y="960" as="sourcePoint" />
            <mxPoint x="-200" y="910" as="targetPoint" />
          </mxGeometry>
        </mxCell>
        <mxCell id="3LVS5Vz8I80ukSkjfiv--47" value="附件ID-111111" style="text;html=1;align=center;verticalAlign=middle;whiteSpace=wrap;rounded=0;" vertex="1" parent="1">
          <mxGeometry x="-280" y="740" width="93" height="30" as="geometry" />
        </mxCell>
        <mxCell id="3LVS5Vz8I80ukSkjfiv--48" value="保存成功后绑定文件&lt;br&gt;附件ID：222222" style="rounded=1;whiteSpace=wrap;html=1;" vertex="1" parent="1">
          <mxGeometry x="170" y="920" width="150" height="60" as="geometry" />
        </mxCell>
        <mxCell id="3LVS5Vz8I80ukSkjfiv--49" value="" style="shape=flexArrow;endArrow=classic;html=1;rounded=0;exitX=1;exitY=0.5;exitDx=0;exitDy=0;" edge="1" parent="1" source="3LVS5Vz8I80ukSkjfiv--40" target="3LVS5Vz8I80ukSkjfiv--48">
          <mxGeometry width="50" height="50" relative="1" as="geometry">
            <mxPoint x="110" y="950" as="sourcePoint" />
            <mxPoint x="170" y="910" as="targetPoint" />
          </mxGeometry>
        </mxCell>
        <mxCell id="3LVS5Vz8I80ukSkjfiv--50" value="" style="rounded=0;whiteSpace=wrap;html=1;dashed=1;dashPattern=8 8;" vertex="1" parent="1">
          <mxGeometry x="130" y="1040" width="460" height="140" as="geometry" />
        </mxCell>
        <mxCell id="3LVS5Vz8I80ukSkjfiv--51" value="" style="rounded=1;whiteSpace=wrap;html=1;fillColor=#f5f5f5;strokeColor=#666666;gradientColor=#b3b3b3;" vertex="1" parent="1">
          <mxGeometry x="160" y="1055" width="170" height="100" as="geometry" />
        </mxCell>
        <mxCell id="3LVS5Vz8I80ukSkjfiv--52" value="文件A" style="rounded=1;whiteSpace=wrap;html=1;fillColor=#dae8fc;gradientColor=#7ea6e0;strokeColor=#6c8ebf;" vertex="1" parent="1">
          <mxGeometry x="175" y="1090" width="70" height="40" as="geometry" />
        </mxCell>
        <mxCell id="3LVS5Vz8I80ukSkjfiv--53" value="附件ID-222222" style="text;html=1;align=center;verticalAlign=middle;whiteSpace=wrap;rounded=0;" vertex="1" parent="1">
          <mxGeometry x="157" y="1055" width="93" height="30" as="geometry" />
        </mxCell>
        <mxCell id="3LVS5Vz8I80ukSkjfiv--54" value="文件B" style="rounded=1;whiteSpace=wrap;html=1;fillColor=#d5e8d4;gradientColor=#97d077;strokeColor=#82b366;" vertex="1" parent="1">
          <mxGeometry x="230" y="1100" width="70" height="40" as="geometry" />
        </mxCell>
        <mxCell id="3LVS5Vz8I80ukSkjfiv--55" value="" style="endArrow=classic;html=1;rounded=0;" edge="1" parent="1" source="3LVS5Vz8I80ukSkjfiv--41" target="3LVS5Vz8I80ukSkjfiv--42">
          <mxGeometry width="50" height="50" relative="1" as="geometry">
            <mxPoint x="-170" y="1070" as="sourcePoint" />
            <mxPoint x="-120" y="1020" as="targetPoint" />
          </mxGeometry>
        </mxCell>
        <mxCell id="3LVS5Vz8I80ukSkjfiv--56" value="" style="endArrow=classic;html=1;rounded=0;entryX=0.5;entryY=1;entryDx=0;entryDy=0;" edge="1" parent="1" source="3LVS5Vz8I80ukSkjfiv--40" target="3LVS5Vz8I80ukSkjfiv--58">
          <mxGeometry width="50" height="50" relative="1" as="geometry">
            <mxPoint x="-100" y="1130" as="sourcePoint" />
            <mxPoint x="-40" y="850" as="targetPoint" />
          </mxGeometry>
        </mxCell>
        <mxCell id="3LVS5Vz8I80ukSkjfiv--57" value="" style="endArrow=classic;html=1;rounded=0;" edge="1" parent="1" target="3LVS5Vz8I80ukSkjfiv--51">
          <mxGeometry width="50" height="50" relative="1" as="geometry">
            <mxPoint x="245" y="980" as="sourcePoint" />
            <mxPoint x="90" y="1180" as="targetPoint" />
          </mxGeometry>
        </mxCell>
        <mxCell id="3LVS5Vz8I80ukSkjfiv--58" value="" style="rounded=1;whiteSpace=wrap;html=1;fillColor=#f5f5f5;strokeColor=#666666;gradientColor=#b3b3b3;" vertex="1" parent="1">
          <mxGeometry x="43" y="735" width="170" height="100" as="geometry" />
        </mxCell>
        <mxCell id="3LVS5Vz8I80ukSkjfiv--59" value="文件A" style="rounded=1;whiteSpace=wrap;html=1;fillColor=#dae8fc;gradientColor=#7ea6e0;strokeColor=#6c8ebf;" vertex="1" parent="1">
          <mxGeometry x="58" y="770" width="70" height="40" as="geometry" />
        </mxCell>
        <mxCell id="3LVS5Vz8I80ukSkjfiv--60" value="附件ID-222222" style="text;html=1;align=center;verticalAlign=middle;whiteSpace=wrap;rounded=0;" vertex="1" parent="1">
          <mxGeometry x="45" y="735" width="93" height="30" as="geometry" />
        </mxCell>
        <mxCell id="3LVS5Vz8I80ukSkjfiv--61" value="" style="endArrow=none;dashed=1;html=1;dashPattern=1 3;strokeWidth=2;rounded=0;" edge="1" parent="1" source="3LVS5Vz8I80ukSkjfiv--1" target="3LVS5Vz8I80ukSkjfiv--8">
          <mxGeometry width="50" height="50" relative="1" as="geometry">
            <mxPoint x="-520" y="240" as="sourcePoint" />
            <mxPoint x="-470" y="190" as="targetPoint" />
          </mxGeometry>
        </mxCell>
        <mxCell id="3LVS5Vz8I80ukSkjfiv--63" value="" style="endArrow=none;dashed=1;html=1;dashPattern=1 3;strokeWidth=2;rounded=0;" edge="1" parent="1" source="3LVS5Vz8I80ukSkjfiv--37" target="3LVS5Vz8I80ukSkjfiv--58">
          <mxGeometry width="50" height="50" relative="1" as="geometry">
            <mxPoint x="-80" y="650" as="sourcePoint" />
            <mxPoint x="-30" y="600" as="targetPoint" />
          </mxGeometry>
        </mxCell>
        <mxCell id="3LVS5Vz8I80ukSkjfiv--64" value="" style="rounded=1;whiteSpace=wrap;html=1;fillColor=#fff2cc;strokeColor=#d6b656;" vertex="1" parent="1">
          <mxGeometry x="383" y="1055" width="170" height="100" as="geometry" />
        </mxCell>
        <mxCell id="3LVS5Vz8I80ukSkjfiv--65" value="文件A" style="rounded=1;whiteSpace=wrap;html=1;fillColor=#dae8fc;gradientColor=#7ea6e0;strokeColor=#6c8ebf;" vertex="1" parent="1">
          <mxGeometry x="398" y="1090" width="70" height="40" as="geometry" />
        </mxCell>
        <mxCell id="3LVS5Vz8I80ukSkjfiv--66" value="附件ID-111111" style="text;html=1;align=center;verticalAlign=middle;whiteSpace=wrap;rounded=0;" vertex="1" parent="1">
          <mxGeometry x="380" y="1055" width="93" height="30" as="geometry" />
        </mxCell>
      </root>
    </mxGraphModel>
  </diagram>
</mxfile>
